# xmcd
#
# Track frame offsets:
#	150
#	16125
#	31305
#	51470
#	67215
#	88312
#	104852
#	120862
#	138897
#	157777
#	174312
#	193560
#
# Disc length: 2832 seconds
#
# Revision: 2
# Processed by: cddbd v1.5.2PL0 Copyright (c) Steve Scherf et al.
# Submitted via: MusicWizard 7.2.1
#
DISCID=9e0b0e0c
DTITLE=Reba Mcentire - So Good Together
DYEAR=1999
DGENRE=Country
TTITLE0=We're So Good Together
TTITLE1='til I Said It To You
TTITLE2=I'll Be
TTITLE3=What Do You Say
TTITLE4=Roses
TTITLE5=I'm Not Your Girl
TTITLE6=She Wasn't Good Enough For Him
TTITLE7=Nobody Dies From A Broken Heart
TTITLE8=Back Before The War
TTITLE9=When You're Not Trying To
TTITLE10=Where You End And I Begin
TTITLE11=We're All Alone
EXTD=(c)1999 MCA Nashville\nupc 008817011929
EXTT0=
EXTT1=
EXTT2=
EXTT3=
EXTT4=
EXTT5=
EXTT6=
EXTT7=
EXTT8=
EXTT9=
EXTT10=
EXTT11=
PLAYORDER=
